<svg width="86" height="86" viewBox="0 0 86 86" fill="none" xmlns="http://www.w3.org/2000/svg">
<path d="M45.44 85.684C23.524 85.684 10.256 71.114 9.62801 70.408C9.17601 69.9 8.95001 69.23 9.00201 68.553L10.987 42.808C7.36 41.258 3.541 38.793 1.596 34.948C-0.528996 30.749 -0.068995 25.842 2.96301 20.362C6.31801 14.299 12.915 10.667 19.005 11.546C21.238 11.865 23.215 12.747 24.867 14.116C25.969 10.954 28.042 7.016 31.91 4.137C36.907 0.418 43.546 -0.585999 51.651 1.156C59.048 2.746 65.221 8.497 67.377 15.807C68.208 18.624 68.367 21.458 67.898 24.122C72.549 24.14 76.862 25.723 80.093 28.672C82.973 31.301 86.271 36.193 85.626 44.571C85.181 50.365 83.003 54.66 79.154 57.337C76.035 59.506 72.335 60.201 69.101 60.282L56.931 83.446C56.577 84.119 55.937 84.594 55.19 84.738C51.778 85.396 48.522 85.684 45.44 85.684ZM14.073 67.822C17.364 71.097 31.569 83.627 53.075 80.04L63.659 59.893C62.216 59.657 61.278 59.395 61.153 59.359C59.825 58.979 59.057 57.595 59.437 56.268C59.816 54.941 61.201 54.166 62.528 54.552C62.608 54.574 71.056 56.896 76.315 53.223C78.862 51.444 80.317 48.405 80.642 44.19C81.029 39.149 79.674 35.061 76.723 32.366C74.029 29.907 70.204 28.781 66.113 29.214C65.376 30.554 64.445 31.8 63.328 32.917C62.407 33.837 60.932 33.899 59.939 33.052C58.947 32.207 58.77 30.742 59.533 29.685L62.057 26.189C63.32 23.535 63.524 20.419 62.58 17.221C60.934 11.642 56.232 7.255 50.6 6.044C43.968 4.619 38.685 5.326 34.895 8.148C30.085 11.728 28.922 17.715 28.686 19.387L28.703 19.441C29.125 20.441 29.47 21.525 29.73 22.684C30.023 23.989 29.237 25.293 27.946 25.644C26.651 25.995 25.317 25.267 24.909 23.993L24.018 21.206C22.819 18.504 20.845 16.859 18.296 16.494C14.28 15.914 9.671 18.563 7.337 22.782C5.158 26.72 4.72601 30.051 6.05301 32.681C7.65101 35.848 11.657 37.879 15.178 39.051L20.553 40.329C21.846 40.637 22.673 41.903 22.433 43.211C22.193 44.519 20.977 45.406 19.653 45.24C19.472 45.217 17.969 45.012 15.873 44.464L14.073 67.822Z" fill="#ECF0F1"/>
<path d="M49.437 76.815C27.507 76.815 12.929 62.257 12.241 61.556C11.467 60.768 11.479 59.501 12.267 58.728C13.056 57.953 14.322 57.966 15.096 58.753C15.359 59.017 33.134 76.623 57.887 72.032C58.976 71.832 60.016 72.55 60.218 73.635C60.419 74.721 59.701 75.765 58.615 75.966C55.436 76.556 52.368 76.815 49.437 76.815Z" fill="#ECF0F1"/>
<path d="M21.669 67.667C21.59 67.667 21.51 67.662 21.429 67.652C20.332 67.521 19.55 66.526 19.681 65.429L21.266 52.182C21.397 51.085 22.39 50.301 23.49 50.434C24.587 50.565 25.369 51.56 25.238 52.657L23.653 65.904C23.531 66.921 22.667 67.667 21.669 67.667Z" fill="#ECF0F1"/>
<path d="M48.666 75.334C48.414 75.334 48.158 75.286 47.911 75.185C46.889 74.768 46.397 73.6 46.815 72.578L51.861 60.216C52.278 59.194 53.447 58.7 54.468 59.12C55.49 59.537 55.982 60.705 55.564 61.727L50.518 74.089C50.202 74.864 49.455 75.334 48.666 75.334Z" fill="#ECF0F1"/>
<path d="M33.449 73.161C33.238 73.161 33.022 73.127 32.81 73.056C31.764 72.703 31.201 71.569 31.553 70.522L34.048 63.116C34.401 62.069 35.534 61.507 36.582 61.859C37.628 62.212 38.191 63.346 37.839 64.393L35.344 71.799C35.063 72.634 34.284 73.161 33.449 73.161Z" fill="#ECF0F1"/>
<path d="M34.275 20.542C34.182 20.542 34.088 20.535 33.994 20.522C32.9 20.368 32.139 19.356 32.292 18.263C32.827 14.468 36.205 7.423 45.212 7.905C46.315 7.965 47.16 8.907 47.101 10.01C47.042 11.113 46.126 11.958 44.996 11.899C37.399 11.49 36.296 18.521 36.253 18.82C36.113 19.819 35.256 20.542 34.275 20.542Z" fill="#ECF0F1"/>
<path d="M75.998 42.667C74.961 42.667 74.084 41.867 74.006 40.816C73.646 36.014 69.444 35.332 68.965 35.27C67.876 35.129 67.096 34.134 67.229 33.044C67.363 31.954 68.349 31.175 69.432 31.297C72.178 31.609 77.501 33.938 77.994 40.517C78.077 41.618 77.251 42.578 76.149 42.661C76.099 42.665 76.048 42.667 75.998 42.667Z" fill="#ECF0F1"/>
<path d="M50.392 12.867C51.4601 12.867 52.326 12.0011 52.326 10.933C52.326 9.86488 51.4601 8.999 50.392 8.999C49.3239 8.999 48.458 9.86488 48.458 10.933C48.458 12.0011 49.3239 12.867 50.392 12.867Z" fill="#ECF0F1"/>
</svg>
