<svg width="24" height="44" viewBox="0 0 24 44" fill="none" xmlns="http://www.w3.org/2000/svg">
<path fill-rule="evenodd" clip-rule="evenodd" d="M21.5705 0.00444665C21.0509 0.0286144 20.5613 0.254195 20.2052 0.633353L0.898612 20.6119C0.537807 20.9849 0.336105 21.4835 0.336105 22.0025C0.336105 22.5215 0.537807 23.0201 0.898612 23.3931L20.2052 43.3716C20.3869 43.5638 20.605 43.7181 20.8467 43.8255C21.0884 43.9328 21.349 43.9912 21.6134 43.9972C21.8778 44.0032 22.1408 43.9567 22.3871 43.8604C22.6335 43.7641 22.8582 43.6198 23.0485 43.4361C23.2387 43.2523 23.3906 43.0326 23.4953 42.7898C23.6001 42.5469 23.6557 42.2857 23.6588 42.0212C23.6619 41.7568 23.6126 41.4943 23.5136 41.249C23.4146 41.0038 23.268 40.7806 23.0822 40.5923L5.11735 22.0025L23.0822 3.41265C23.3664 3.12682 23.5575 2.76181 23.6307 2.36546C23.7038 1.96911 23.6555 1.5599 23.4921 1.19148C23.3287 0.82305 23.0578 0.512585 22.7149 0.300769C22.372 0.0889531 21.9731 -0.0143329 21.5705 0.00444665Z" fill="white"/>
</svg>
