<svg width="113" height="39" viewBox="0 0 113 39" fill="none" xmlns="http://www.w3.org/2000/svg">
<path d="M6.37781 0.808853L105.456 3.51552C109.05 3.61372 112.347 6.89376 112.442 10.5022L112.997 30.7887C113.067 33.3697 111.222 35.5055 108.682 35.8065C87.3829 38.324 71.5528 40.3545 49.7577 36.6511C47.1977 36.2163 45.2386 33.9655 45.1681 31.3843L44.7034 14.3755C44.6615 12.8416 43.0026 11.7442 41.6695 12.4318C35.328 15.7031 25.8709 12.908 16.912 10.5341C14.5903 9.91912 12.196 10.3714 10.2976 11.6882C9.27341 12.3983 7.99556 12.8272 6.70211 12.789C3.10777 12.6908 0.634545 9.83759 0.544122 6.63101C0.459968 3.44719 2.78354 0.710582 6.37781 0.808853ZM100.693 19.3607C102.703 19.4156 104.641 17.4776 104.583 15.471C104.529 13.4786 102.479 11.4288 100.475 11.3741C98.4827 11.3196 96.542 13.2604 96.5964 15.2528C96.6484 17.2593 98.2934 19.2952 100.693 19.3607Z" fill="#ECF0F1" fill-opacity="0.3"/>
</svg>
