<svg width="114" height="39" viewBox="0 0 114 39" fill="none" xmlns="http://www.w3.org/2000/svg">
<path d="M6.73821 0.169243L105.816 2.87591C109.41 2.9741 112.707 6.25415 112.803 9.86254L113.357 30.1491C113.427 32.7301 111.583 34.8659 109.043 35.1669C87.7433 37.6844 71.9132 39.7149 50.1181 36.0115C47.5581 35.5767 45.599 33.3259 45.5285 30.7447L45.0638 13.7359C45.0219 12.202 43.363 11.1046 42.0299 11.7922C35.6884 15.0635 26.2313 12.2684 17.2723 9.89446C14.9507 9.27951 12.5564 9.73175 10.658 11.0486C9.6338 11.7587 8.35596 12.1876 7.06251 12.1494C3.46817 12.0512 0.994942 9.19798 0.904519 5.9914C0.820365 2.80758 3.14393 0.0709713 6.73821 0.169243ZM101.054 18.7211C103.063 18.776 105.001 16.838 104.943 14.8314C104.889 12.8389 102.839 10.7892 100.836 10.7345C98.8431 10.68 96.9024 12.6208 96.9568 14.6132C97.0088 16.6197 98.6538 18.6556 101.054 18.7211Z" fill="#ECF0F1"/>
</svg>
