<svg width="68" height="96" viewBox="0 0 68 96" fill="none" xmlns="http://www.w3.org/2000/svg">
<path d="M28.1 28.5C23 30.8 19.6 35.7 19.4 41.4L19 53.3C18.9 55.4 20.6 57.1 22.7 57.1H24.2L21.5 74.6C21.1 77.3 23.2 79.7 25.9 79.7C28.3 79.7 30.3 77.7 30.3 75.3V29.8C30.2 28.8 29.1 28.1 28.1 28.5Z" fill="#ECF0F1"/>
<path d="M47.4 28.4C46.5 28.4 45.8 29.1 45.8 30V41.9C45.8 42.3 45.4 42.7 45 42.7H44C43.6 42.7 43.2 42.3 43.2 41.9V29.9C43.2 29 42.5 28.3 41.6 28.3C40.7 28.3 40 29 40 29.9V41.8C40 42.2 39.6 42.6 39.2 42.6H38.2C37.8 42.6 37.4 42.2 37.4 41.8V29.9C37.4 29 36.7 28.3 35.8 28.3C34.9 28.3 34.2 29 34.2 29.9V43.8C34.2 45.8 35.8 47.5 37.9 47.5H38.7L37.2 75C37 77.6 39.1 79.7 41.6 79.7H41.7C44.3 79.7 46.3 77.5 46.1 75L44.4 47.5H45.2C47.2 47.5 48.9 45.9 48.9 43.8V29.9C49 29.1 48.3 28.4 47.4 28.4Z" fill="#ECF0F1"/>
<path d="M59.9 12.6H58.6V8.2C58.6 5.8 57.5 3.6 55.6 2.1C53.7 0.599998 51.3 0.0999983 49 0.699998L6.3 11.7C2.9 12.6 0.5 15.6 0.5 19.2V87.8C0.5 92.1 4 95.5 8.2 95.5H60C64.2 95.5 67.7 92 67.7 87.8V20.3C67.6 16.1 64.1 12.6 59.9 12.6ZM50.3 6.2C51.2 6 51.8 6.3 52.1 6.6C52.6 7 52.9 7.6 52.9 8.2V12.6H25.5L50.3 6.2ZM62 87.8C62 88.9 61.1 89.9 59.9 89.9H8.1C7 89.9 6 89 6 87.8V19.2C6 18.8 6.1 18.5 6.2 18.2H59.8C60.9 18.2 61.9 19.1 61.9 20.3V87.8H62Z" fill="#ECF0F1"/>
</svg>
