<svg width="96" height="66" viewBox="0 0 96 66" fill="none" xmlns="http://www.w3.org/2000/svg">
<path d="M72 19H18L28.47 8.53C29.3808 7.58699 29.8848 6.32398 29.8734 5.013C29.862 3.70201 29.3361 2.44795 28.4091 1.52091C27.4821 0.593868 26.228 0.0680234 24.917 0.0566313C23.606 0.0452392 22.343 0.549211 21.4 1.46L2.4 20.46C1.46264 21.3976 0.936068 22.6692 0.936068 23.995C0.936068 25.3208 1.46264 26.5924 2.4 27.53L21.4 46.53C22.343 47.4408 23.606 47.9448 24.917 47.9334C26.228 47.922 27.4821 47.3961 28.4091 46.4691C29.3361 45.5421 29.862 44.288 29.8734 42.977C29.8848 41.666 29.3808 40.403 28.47 39.46L18 29H72C75.4743 29 78.8064 30.3802 81.2631 32.8369C83.7198 35.2936 85.1 38.6257 85.1 42.1C85.1 45.5743 83.7198 48.9064 81.2631 51.3631C78.8064 53.8198 75.4743 55.2 72 55.2V65.2C78.1265 65.2 84.0021 62.7663 88.3342 58.4342C92.6663 54.1021 95.1 48.2265 95.1 42.1C95.1 35.9735 92.6663 30.0979 88.3342 25.7658C84.0021 21.4337 78.1265 19 72 19Z" fill="#ECF0F1"/>
<path d="M67.93 56H63.93V66H67.93V56Z" fill="#ECF0F1"/>
<path d="M59.93 56H55.93V66H59.93V56Z" fill="#ECF0F1"/>
<path d="M35.93 56H31.93V66H35.93V56Z" fill="#ECF0F1"/>
<path d="M43.93 56H39.93V66H43.93V56Z" fill="#ECF0F1"/>
<path d="M51.93 56H47.93V66H51.93V56Z" fill="#ECF0F1"/>
</svg>
