<svg width="60" height="62" viewBox="0 0 60 62" fill="none" xmlns="http://www.w3.org/2000/svg">
<path d="M29.8 34.65C29.96 34.65 30.12 34.59 30.25 34.46L33.9 30.81C34.46 31.19 35.12 31.42 35.79 31.42C35.91 31.42 36.03 31.41 36.16 31.4C37.85 31.19 39.21 29.58 39.12 27.88C39.09 27.3 38.87 26.71 38.52 26.2L45.19 19.53C45.44 19.28 45.44 18.88 45.19 18.64C44.94 18.4 44.54 18.39 44.3 18.64L37.64 25.3C36.85 24.74 35.89 24.56 34.94 24.8C33.29 25.23 32.16 27 32.47 28.68C32.56 29.14 32.75 29.55 33.01 29.92L29.37 33.56C29.12 33.81 29.12 34.21 29.37 34.45C29.48 34.59 29.64 34.65 29.8 34.65Z" fill="white"/>
<path d="M58.65 26.56C60.07 24.87 60.08 22.34 58.67 20.92C57.88 20.13 56.73 19.68 55.37 19.7C54.78 19.7 54.2 19.79 53.64 19.91C52.58 17.77 51.1 15.69 49.26 13.91L49.54 13.54C49.84 13.13 50.16 12.72 50.45 12.32C50.77 12.56 51.07 12.79 51.34 13C51.67 13.25 52.05 13.38 52.45 13.38C52.55 13.38 52.64 13.37 52.74 13.36C53.24 13.28 53.68 13.01 53.97 12.59L55 11.12C55.56 10.32 55.4 9.22 54.63 8.61L49.25 4.35C48.46 3.73 47.34 3.84 46.69 4.61L45.46 6.07C45.14 6.46 44.98 6.96 45.04 7.47C45.1 7.98 45.35 8.43 45.76 8.74C46.04 8.96 46.37 9.2 46.71 9.47C46.31 9.97 45.88 10.52 45.49 11.01C43.37 9.73 40.97 8.82 38.35 8.45C38.32 7.75 38.29 7.05 38.26 6.35C38.78 6.34 39.26 6.33 39.69 6.32C40.26 6.31 40.79 6.07 41.18 5.65C41.57 5.23 41.76 4.68 41.73 4.11L41.6 1.98C41.51 0.86 40.6 0 39.5 0L31.32 0.00999999C30.19 0.00999999 29.28 0.9 29.24 2.03L29.17 4.31C29.15 4.89 29.37 5.43 29.77 5.84C30.16 6.24 30.69 6.45 31.24 6.45C31.26 6.45 31.28 6.44 31.29 6.45C31.75 6.44 32.28 6.43 32.84 6.42L32.85 8.46C32.19 8.56 31.52 8.69 30.85 8.86C29.55 9.19 28.31 9.68 27.12 10.3C26.69 7.09 24.89 4.05 22.28 2.21C20.52 0.96 18.68 0.68 17.34 1.44C16.46 1.95 15.81 2.94 15.56 4.15C15.37 5.1 15.42 6.05 15.47 6.97L15.48 7.09C15.9 15.16 14.13 24.75 10.49 34.3C9.95999 33.73 9.25999 33.36 8.47999 33.26C7.58999 33.15 6.70999 33.38 5.98999 33.93L1.44999 37.43C0.809986 37.92 0.399986 38.63 0.299986 39.43C0.199986 40.23 0.409986 41.02 0.899986 41.66L15.1 60.08C15.9 61.11 17.05 61.78 18.35 61.94C18.57 61.99 18.79 62 19 62C20.07 62 21.11 61.65 21.98 60.98L25.07 58.6C25.77 58.06 26.22 57.28 26.33 56.4C26.39 55.9 26.33 55.4 26.18 54.93C26.29 54.92 26.41 54.89 26.52 54.88C45.89 53.04 50.22 46.63 51.18 44.1C51.33 44.11 51.48 44.12 51.64 44.12C51.65 44.12 51.67 44.12 51.68 44.12C53.83 44.12 55.71 43.35 56.85 42C58.27 40.31 58.28 37.78 56.87 36.36C56.64 36.13 56.37 35.93 56.08 35.76C56.88 35.4 57.57 34.91 58.09 34.28C59.51 32.59 59.52 30.06 58.11 28.64C57.79 28.32 57.42 28.07 56.99 27.87C57.64 27.53 58.2 27.09 58.65 26.56ZM47.7 10.21C47.98 10.42 48.26 10.64 48.54 10.85C48.84 11.08 49.14 11.31 49.44 11.54C49.14 11.94 48.83 12.36 48.52 12.77L48.31 13.05C47.75 12.57 47.16 12.1 46.54 11.68C46.92 11.2 47.33 10.68 47.7 10.21ZM31.74 3.55C31.39 3.55 31.11 3.27 31.11 2.92C31.11 2.57 31.39 2.29 31.74 2.29H35.43C35.78 2.29 36.06 2.57 36.06 2.92C36.06 3.27 35.78 3.55 35.43 3.55H31.74ZM37.68 2.76C37.68 2.41 37.96 2.13 38.31 2.13H38.47C38.82 2.13 39.1 2.41 39.1 2.76C39.1 3.11 38.82 3.39 38.47 3.39H38.31C37.96 3.39 37.68 3.11 37.68 2.76ZM34.12 8.25L34.11 6.4C34.56 6.39 35.01 6.38 35.47 6.38C35.98 6.37 36.48 6.36 36.97 6.35C37 7 37.03 7.64 37.06 8.29C36.3 8.24 35.53 8.23 34.74 8.27L34.12 8.25ZM31.16 10.09C32.74 9.69 34.27 9.51 35.74 9.51C43.44 9.51 49.49 14.56 52.38 20.22C52.33 20.23 52.27 20.25 52.22 20.26L52.15 20.28C51.92 20.34 51.65 20.4 51.37 20.46C50.16 20.71 48.66 21.03 48.01 22.21C47.17 23.74 47.81 25.88 48.88 26.98C49.01 27.11 49.15 27.24 49.3 27.36C49.31 27.37 49.32 27.37 49.32 27.38C49.46 27.49 49.6 27.6 49.76 27.69C49.81 27.72 49.86 27.75 49.91 27.78C50.02 27.85 50.14 27.92 50.26 27.98C50.33 28.01 50.4 28.04 50.48 28.08C50.57 28.12 50.66 28.16 50.75 28.2C50.61 28.23 50.46 28.26 50.32 28.29C50.27 28.3 50.22 28.31 50.17 28.33C50.06 28.36 49.96 28.38 49.85 28.41C49.78 28.43 49.72 28.45 49.65 28.47C49.56 28.5 49.47 28.52 49.38 28.55C49.31 28.57 49.24 28.6 49.17 28.63C49.09 28.66 49 28.69 48.92 28.73C48.85 28.76 48.78 28.8 48.7 28.84C48.63 28.88 48.55 28.91 48.48 28.95C48.4 29 48.32 29.05 48.25 29.11C48.2 29.15 48.14 29.18 48.09 29.22C47.84 29.42 47.63 29.66 47.46 29.95C47.36 30.14 47.28 30.33 47.22 30.54C46.79 31.99 47.39 33.75 48.33 34.72C48.38 34.78 48.44 34.82 48.5 34.88C48.57 34.94 48.64 35.01 48.71 35.07C48.78 35.12 48.85 35.18 48.92 35.23C49 35.29 49.07 35.34 49.15 35.4C49.22 35.45 49.3 35.49 49.37 35.54C49.46 35.59 49.54 35.64 49.63 35.69C49.7 35.73 49.78 35.76 49.85 35.8C49.89 35.82 49.93 35.84 49.96 35.86C49.84 35.89 49.71 35.91 49.58 35.94C48.62 36.14 47.48 36.39 46.72 37.08C46.53 37.26 46.35 37.45 46.22 37.69C46.2 37.73 46.19 37.78 46.16 37.82C45.42 39.34 46.04 41.38 47.08 42.45C47.09 42.46 47.11 42.47 47.12 42.48C47.13 42.49 47.14 42.5 47.15 42.51C44.42 44.75 41.28 46.13 38.02 46.52C28.83 47.63 19.26 40.62 17.56 31.53C15.84 22.39 22.2 12.39 31.16 10.09ZM18.15 54.11C18.04 54.2 17.9 54.24 17.76 54.24C17.57 54.24 17.38 54.16 17.26 53.99L16.86 53.47C16.65 53.19 16.7 52.8 16.97 52.58C17.25 52.37 17.64 52.42 17.86 52.69L18.26 53.21C18.47 53.5 18.42 53.89 18.15 54.11ZM14.93 48.91C15.14 49.19 15.09 49.58 14.82 49.8C14.7 49.89 14.57 49.93 14.43 49.93C14.24 49.93 14.05 49.85 13.93 49.68L6.87999 40.54C6.66999 40.26 6.71999 39.87 6.98999 39.65C7.26999 39.44 7.65999 39.49 7.87999 39.76L14.93 48.91ZM26.4 53.62C26.1 53.65 25.81 53.7 25.51 53.74L11.4 35.45C15.28 25.51 17.18 15.48 16.74 7.03L16.73 6.9C16.68 6.06 16.64 5.19 16.79 4.4C16.97 3.55 17.4 2.87 17.97 2.54C19.3 1.78 21.04 2.88 21.55 3.24C24.02 4.98 25.67 7.92 25.92 10.98C19.08 15.19 14.8 23.78 16.29 31.73C17.99 40.77 26.94 47.87 36.08 47.87C36.77 47.87 37.46 47.83 38.15 47.75C41.75 47.32 45.19 45.76 48.16 43.26C48.67 43.56 49.25 43.78 49.88 43.92C48.9 46.1 44.61 51.89 26.4 53.62ZM55.89 41.18C54.99 42.24 53.47 42.85 51.69 42.85C51.68 42.85 51.66 42.85 51.65 42.85C50.88 42.85 49.54 42.71 48.48 41.95C48.43 41.91 48.38 41.88 48.33 41.84C48.23 41.76 48.13 41.68 48.03 41.58C48.01 41.56 47.99 41.55 47.97 41.53C47.23 40.77 46.79 39.21 47.31 38.26C47.36 38.18 47.42 38.1 47.48 38.03C47.97 37.53 48.98 37.32 49.82 37.14C50.13 37.07 50.42 37.01 50.68 36.94C51.01 36.85 51.34 36.76 51.67 36.68C51.78 36.65 51.89 36.63 52 36.6C52.09 36.58 52.18 36.56 52.26 36.55C52.42 36.52 52.58 36.49 52.74 36.47C52.8 36.46 52.86 36.45 52.92 36.45C53.13 36.43 53.35 36.41 53.56 36.41C54.56 36.39 55.42 36.71 55.96 37.25C57 38.28 56.75 40.15 55.89 41.18ZM57.12 33.46C56.22 34.53 54.7 35.14 52.9 35.13C52.89 35.13 52.89 35.13 52.88 35.13C52.66 35.13 52.4 35.12 52.1 35.08C52.09 35.08 52.09 35.08 52.08 35.08C51.99 35.07 51.89 35.05 51.8 35.04C51.74 35.03 51.68 35.02 51.61 35.01C50.8 34.86 49.89 34.52 49.2 33.81C49.05 33.66 48.92 33.47 48.81 33.27C48.33 32.45 48.12 31.3 48.54 30.54C48.66 30.32 48.88 30.14 49.14 30C49.67 29.71 50.41 29.55 51.05 29.42C51.36 29.35 51.65 29.29 51.91 29.22C51.95 29.21 52 29.2 52.04 29.18C52.47 29.06 52.91 28.94 53.34 28.85C53.36 28.85 53.38 28.84 53.4 28.84C53.62 28.79 53.85 28.75 54.07 28.73C54.31 28.7 54.55 28.68 54.79 28.68C54.8 28.68 54.81 28.68 54.82 28.68C55.8 28.68 56.66 28.99 57.2 29.52C58.24 30.56 57.99 32.43 57.12 33.46ZM54.85 27.29C54.37 27.38 53.9 27.43 53.44 27.42C52.92 27.42 52.13 27.35 51.35 27.07C51.29 27.05 51.24 27.04 51.18 27.01C50.68 26.81 50.19 26.52 49.77 26.1C49.03 25.34 48.59 23.78 49.11 22.83C49.48 22.16 50.67 21.91 51.62 21.7C51.93 21.64 52.22 21.57 52.48 21.5C52.59 21.47 52.71 21.44 52.82 21.41C52.97 21.37 53.11 21.33 53.26 21.29C53.96 21.11 54.67 20.96 55.37 20.96C56.36 20.98 57.23 21.26 57.77 21.8C58.8 22.83 58.55 24.7 57.68 25.74C57.03 26.52 56.03 27.06 54.85 27.29Z" fill="white"/>
<path d="M10.62 23.5C10.69 23.53 10.77 23.54 10.84 23.54C11.1 23.54 11.34 23.38 11.43 23.13C12.94 19.08 13.74 14.84 13.79 10.52C13.79 10.17 13.51 9.88 13.17 9.88H13.16C12.81 9.88 12.53 10.16 12.53 10.5C12.48 14.67 11.71 18.77 10.25 22.68C10.13 23.01 10.3 23.38 10.62 23.5Z" fill="white"/>
<path d="M13.08 8.78C13.43 8.78 13.71 8.5 13.71 8.15V7.29C13.71 6.94 13.43 6.66 13.08 6.66C12.73 6.66 12.45 6.94 12.45 7.29V8.15C12.45 8.5 12.73 8.78 13.08 8.78Z" fill="white"/>
<path d="M22.75 28.28C22.75 28.28 22.76 28.28 22.77 28.28C23.12 28.27 23.4 27.98 23.39 27.63C23.31 24.24 25.12 20.88 28 19.08C28.3 18.89 28.39 18.5 28.2 18.21C28.02 17.91 27.62 17.82 27.33 18.01C24.08 20.04 22.04 23.83 22.13 27.66C22.12 28.01 22.41 28.28 22.75 28.28Z" fill="white"/>
<path d="M29.94 17.87C30.08 17.87 30.22 17.82 30.34 17.73L30.73 17.42C31 17.2 31.05 16.8 30.83 16.53C30.61 16.26 30.21 16.21 29.94 16.43L29.55 16.74C29.28 16.96 29.23 17.36 29.45 17.63C29.57 17.79 29.75 17.87 29.94 17.87Z" fill="white"/>
</svg>
