<svg width="44" height="46" viewBox="0 0 44 46" fill="none" xmlns="http://www.w3.org/2000/svg">
<path d="M42.7001 22.51236C41.9001 20.9998 41.4001 15.7998 38.5001 12.8998C38.1001 12.2998 37.7001 11.6998 37.2001 11.1998C36.6001 10.5998 35.8001 10.0998 35.1001 9.6998C34.6001 9.3998 34.1001 9.1998 33.6001 8.9998C33.2001 9.2998 32.8001 9.5998 32.5001 9.7998C31.5001 10.3998 30.6001 10.8998 29.6001 11.3998C30.2001 13.4998 30.7001 15.6998 31.2001 17.7998L31.9001 21.1998L28.7001 19.9998C25.9001 18.8998 23.8001 16.6998 22.2001 14.5998C21.2001 15.2998 20.0001 15.6998 18.7001 15.9998C17.7001 16.1998 16.7001 16.2998 15.4001 16.2998C14.7001 16.2998 14.0001 16.2998 13.3001 16.1998L10.4001 16.0998L11.6001 13.4998C12.4001 11.7998 13.5001 10.3998 14.8001 9.0998C13.9001 8.5998 13.1001 7.9998 12.3001 7.2998C12.1001 7.2998 11.9001 7.3998 11.7001 7.4998C9.10007 8.3998 7.20007 10.4998 5.70007 12.7998C2.80007 17.1998 0.800072 22.2998 0.900072 27.5998C0.900072 34.8998 5.40007 41.9998 12.1001 44.5998C15.5001 45.8998 19.2001 45.9998 22.8001 45.9998C27.3001 45.9998 32.2001 45.8998 35.7001 42.9998C37.5001 41.4998 38.8001 39.4998 39.9001 37.3998C40.8001 35.8998 41.6001 34.2998 42.2001 32.6998C43.4001 29.4998 43.5001 25.7998 42.7001 22.3998Z" fill="#B70F0F"/>
<path d="M27.0 10.4C28.6001 9.7 30.1001 8.9 31.4001 8.1C32.1001 7.7 32.9001 7.2 33.1001 6.4C30.4001 5.3 27.3001 4.9 24.4001 5.2C24.6001 4.5 24.8001 3.9 25.1001 3.2C25.3001 2.6 25.5001 1.9 25.4001 1.2C25.3001 0.5 24.7001 0 24.0001 0C23.3001 0 22.8001 0.7 22.5001 1.4C21.8001 2.6 21.2001 3.9 20.5001 5.1C19.9001 4.7 19.8001 3.9 19.3001 3.5C19.0001 3.3 18.7001 3.2 18.3001 3.1C15.9001 2.6 13.4001 2.9 11.1001 3.7C13.0001 6 15.7001 7.8 18.5001 8.8C16.2001 10 14.3001 12 13.2001 14.4C14.8001 14.5 16.5001 14.5 18.1001 14.2C19.7001 13.9 21.3001 13.1 22.3001 11.8C24.1001 14.4 26.1001 17.2 29.1001 18.3C28.7001 15.6 28.0001 13 27.2001 10.4Z" fill="#006311"/>
</svg>
